<?xml version="1.0" encoding="UTF-8" standalone="no"?>
<!DOCTYPE svg PUBLIC "-//W3C//DTD SVG 1.1//EN" "http://www.w3.org/Graphics/SVG/1.1/DTD/svg11.dtd">
<!-- Created with Vectornator (http://vectornator.io/) -->
<svg height="100%" stroke-miterlimit="10" style="fill-rule:nonzero;clip-rule:evenodd;stroke-linecap:round;stroke-linejoin:round;" version="1.1" viewBox="0 0 512 512" width="100%" xml:space="preserve" xmlns="http://www.w3.org/2000/svg" xmlns:xlink="http://www.w3.org/1999/xlink">
<defs/>
<g id="Untitled">
<path d="M207.904 301.961C206.921 292.026 206.207 282.055 204.879 272.167C203.582 262.505 201.791 252.903 199.977 243.32C197.535 230.415 194.935 217.539 192.277 204.676C185.813 173.404 177.046 142.742 165.866 112.871C157.597 90.7767 147.875 69.2254 138.791 47.4362C138.133 45.8587 137.394 44.3151 136.693 42.7557C136.999 42.4263 137.306 42.0969 137.612 41.7675C143.058 44.6794 148.681 47.3062 153.916 50.5571C168.939 59.8859 182.94 70.5178 196.111 82.4138C215.238 99.6908 231.261 119.437 246.194 140.323C261.395 161.586 273.722 184.423 284.85 207.923C291.209 221.351 296.316 235.373 302.032 249.891C309.132 275.456 316.904 300.082 323.002 325.115C327.477 343.48 329.758 362.38 332.873 381.35C330.931 384.446 329.156 387.25 327.33 390.021C310.856 415.032 299.875 442.208 295.059 471.818C267.354 471.87 239.65 471.922 211.48 471.47C211.327 467.995 211.808 465.03 211.925 462.052C212.661 443.282 213.671 424.513 213.89 405.735C214.079 389.608 213.504 373.463 212.945 357.338C212.515 344.889 211.791 332.441 210.793 320.025C210.306 313.966 208.896 307.98 207.904 301.961Z" fill="#afe269" fill-rule="nonzero" opacity="1" stroke="none"/>
<path d="M333.016 381.041C329.758 362.38 327.477 343.48 323.002 325.115C316.904 300.082 309.132 275.456 302.066 250.268C307.034 236.759 311.41 223.367 317.136 210.581C325.373 192.189 333.801 173.794 343.624 156.226C352.728 139.942 363.249 124.369 374.099 109.165C386.305 92.062 401.034 77.0835 417.066 63.4742C423.677 57.8624 430.557 52.5662 437.354 47.1759C438.475 46.2869 439.799 45.6536 441.996 44.3115C438.977 53.4774 436.167 61.6354 433.599 69.8689C423.248 103.053 413.535 136.407 406.964 170.593C403.034 191.044 398.712 211.426 395.182 231.946C392.882 245.317 391.664 258.876 390.004 272.357C388.323 286.003 386.645 299.65 385.073 313.31C384.547 317.873 384.352 322.474 383.938 327.825C382.999 329.56 382.201 330.606 381.245 331.481C372.783 339.223 363.905 346.557 355.921 354.762C347.83 363.078 340.615 372.247 333.016 381.041Z" fill="#9acd68" fill-rule="nonzero" opacity="1" stroke="none"/>
<path d="M332.873 381.35C340.615 372.247 347.83 363.078 355.921 354.762C363.905 346.557 372.783 339.223 381.245 331.481C382.201 330.606 382.999 329.56 383.953 328.258C390.846 323.293 397.539 318.477 404.491 314.067C432.115 296.545 461.743 283.657 493.588 275.976C494.62 275.727 495.62 275.342 497.253 274.825C450.061 332.459 430.206 399.96 420.032 471.959C379.141 471.959 337.558 471.959 295.517 471.888C299.875 442.208 310.856 415.032 327.33 390.021C329.156 387.25 330.931 384.446 332.873 381.35Z" fill="#c6ea94" fill-rule="nonzero" opacity="1" stroke="none"/>
<path d="M207.585 301.858C208.896 307.98 210.306 313.966 210.793 320.025C211.791 332.441 212.515 344.889 212.945 357.338C213.504 373.463 214.079 389.608 213.89 405.735C213.671 424.513 212.661 443.282 211.925 462.052C211.808 465.03 211.327 467.995 211.017 471.398C190.328 471.878 169.635 471.925 148.472 471.448C147.983 456.91 147.963 442.895 147.943 428.881C146.644 415.168 145.844 401.384 143.909 387.761C141.829 373.121 139.259 358.496 135.865 344.11C130.942 323.239 123.838 303.041 115.173 283.371C105.75 261.983 94.6038 241.568 81.9577 221.951C79.0716 217.474 75.8421 213.218 73.4302 207.747C77.7519 209.21 82.1579 210.465 86.3818 212.171C113.601 223.164 139.146 237.082 161.621 256.167C170.533 263.735 179.49 271.308 187.782 279.529C194.762 286.448 200.807 294.31 207.585 301.858Z" fill="#9acd68" fill-rule="nonzero" opacity="1" stroke="none"/>
<path d="M147.614 428.776C147.963 442.895 147.983 456.91 148.009 471.383C122.889 471.841 97.7627 471.841 72.0887 471.841C73.0989 418.831 52.8822 374.476 16.4907 336.746C16.8241 336.368 17.1575 335.991 17.491 335.613C25.9653 338.213 34.5806 340.431 42.8856 343.491C61.9574 350.518 79.8613 359.828 96.4345 371.707C115.305 385.231 131.091 401.569 143.122 421.467C144.556 423.84 145.899 426.269 147.614 428.776Z" fill="#89c053" fill-rule="nonzero" opacity="1" stroke="none"/>
</g>
</svg>
